<svg xmlns="http://www.w3.org/2000/svg" viewBox="0 0 93.65 76.03"><defs><style>.cls-1{fill:none;stroke:#fff;stroke-miterlimit:10;stroke-width:4px;}</style></defs><title>linkAsset 1</title><g id="Layer_2" data-name="Layer 2"><g id="Layer_2-2" data-name="Layer 2"><path class="cls-1" d="M47.08,66.26A7.77,7.77,0,0,0,54.86,74,37.49,37.49,0,0,0,80,63.66c7.49-7,11.61-16.1,11.61-25.64C91.65,18.16,76.54,2,58,2H41.9a7.78,7.78,0,0,0,0,15.55H58C68,17.55,76.1,26.73,76.1,38c0,7.26-5.51,15.51-13.47,18.91V40.87a7.77,7.77,0,0,0-7.77-7.78H17.55V9.77A7.78,7.78,0,0,0,2,9.77V66.26a7.78,7.78,0,0,0,15.55,0V48.64H47.08V66.26A7.77,7.77,0,0,0,54.86,74"/></g></g></svg>